<?xml version="1.0" encoding="UTF-8" standalone="no"?>
<!DOCTYPE svg PUBLIC "-//W3C//DTD SVG 1.1//EN" "http://www.w3.org/Graphics/SVG/1.1/DTD/svg11.dtd">
<svg width="100%" height="100%" viewBox="0 0 52 52" version="1.1" xmlns="http://www.w3.org/2000/svg" xmlns:xlink="http://www.w3.org/1999/xlink" xml:space="preserve" xmlns:serif="http://www.serif.com/" style="fill-rule:evenodd;clip-rule:evenodd;stroke-linejoin:round;stroke-miterlimit:2;">
    <path d="M8,42L4,42L4,38L2,38L2,34L0,34L0,18L2,18L2,14L4,14L4,10L8,10L8,6L44,6L44,10L48,10L48,14L50,14L50,18L52,18L52,34L50,34L50,38L48,38L48,42L44,42L44,46L8,46L8,42ZM17,27L23,27L23,28L24,28L24,33L26,33L26,27L25,27L25,25L26,25L26,21L25,21L25,20L24,20L24,19L15,19L15,33L17,33L17,27ZM17,21L23,21L23,22L24,22L24,24L23,24L23,25L17,25L17,21ZM31.5,21L31.5,33L33.5,33L33.5,21L37,21L37,19L28,19L28,21L31.5,21Z" style="fill:white;"/>
</svg>
