<?xml version="1.0" encoding="utf-8"?>
<svg width="100%" height="100%" viewBox="0 0 52 52" version="1.1" style="fill-rule:evenodd;clip-rule:evenodd;stroke-linejoin:round;stroke-miterlimit:2;" xmlns="http://www.w3.org/2000/svg">
  <defs/>
  <path d="M 2 46 L 0 46 L 0 34 L 2 34 L 2 30 L 6 30 L 6 28 L 46 28 L 46 30 L 50 30 L 50 34 L 52 34 L 52 46 L 50 46 L 50 50 L 46 50 L 46 52 L 6 52 L 6 50 L 2 50 L 2 46 Z M 31 35 L 31 47 L 32.999 47 L 32.999 35 L 36.499 35 L 36.499 33 L 27.499 33 L 27.499 35 L 31 35 Z M 17 41 L 23 41 L 23 42 L 23.999 42 L 23.999 47 L 26 47 L 26 41 L 25 41 L 25 39 L 26 39 L 26 35 L 25 35 L 25 34 L 23.999 34 L 23.999 33 L 14.999 33 L 14.999 47 L 17 47 L 17 41 Z M 17 35 L 23 35 L 23 36 L 23.999 36 L 23.999 38 L 23 38 L 23 39 L 17 39 L 17 35 Z" style="fill:white;"/>
  <path d="M 2 18 L 0 18 L 0 6 L 2 6 L 2 2 L 6 2 L 6 0 L 46 0 L 46 2 L 50 2 L 50 6 L 52 6 L 52 18 L 50 18 L 50 22 L 46 22 L 46 24 L 6 24 L 6 22 L 2 22 L 2 18 Z M 24.499 19 L 24.499 17 L 17.5 17 L 17.5 5 L 15.501 5 L 15.501 19 L 24.499 19 Z M 31 7 L 31 19 L 32.999 19 L 32.999 7 L 36.499 7 L 36.499 5 L 27.499 5 L 27.499 7 L 31 7 Z" style="fill:white;"/>
</svg>