<?xml version="1.0" encoding="utf-8"?>
<svg width="100%" height="100%" viewBox="0 0 52 52" version="1.1" style="fill-rule:evenodd;clip-rule:evenodd;stroke-linejoin:round;stroke-miterlimit:2;" xmlns="http://www.w3.org/2000/svg">
  <defs/>
  <path d="M 2 46 L 0 46 L 0 34 L 2 34 L 2 30 L 6 30 L 6 28 L 46 28 L 46 30 L 50 30 L 50 34 L 52 34 L 52 46 L 50 46 L 50 50 L 46 50 L 46 52 L 6 52 L 6 50 L 2 50 L 2 46 Z M 22.5 41 L 28.5 41 L 28.5 42 L 29.5 42 L 29.5 47 L 31.5 47 L 31.5 41 L 30.499 41 L 30.499 39 L 31.5 39 L 31.5 35 L 30.499 35 L 30.499 34 L 29.5 34 L 29.5 33 L 20.5 33 L 20.5 47 L 22.5 47 L 22.5 41 Z M 22.5 35 L 28.5 35 L 28.5 36 L 29.5 36 L 29.5 38 L 28.5 38 L 28.5 39 L 22.5 39 L 22.5 35 Z" style="fill:white;"/>
  <path d="M 2 18 L 0 18 L 0 6 L 2 6 L 2 2 L 6 2 L 6 0 L 46 0 L 46 2 L 50 2 L 50 6 L 52 6 L 52 18 L 50 18 L 50 22 L 46 22 L 46 24 L 6 24 L 6 22 L 2 22 L 2 18 Z M 30.499 19 L 30.499 17 L 23.5 17 L 23.5 5 L 21.499 5 L 21.499 19 L 30.499 19 Z" style="fill:white;"/>
</svg>