<?xml version="1.0" encoding="utf-8"?>
<svg width="100%" height="100%" viewBox="0 0 24 24" version="1.1" style="fill-rule:evenodd;clip-rule:evenodd;stroke-linejoin:round;stroke-miterlimit:2;" xmlns="http://www.w3.org/2000/svg">
  <defs/>
  <path d="M 8.002 24 L 8.002 16.001 L 0.012 16.001 L 0.012 8.001 L 8.002 8.001 L 8.002 0.001 L 16.002 0.001 L 16.002 8.001 L 24.012 8.001 L 24.012 16.001 L 16.002 16.001 L 16.002 24 L 8.002 24 Z M 11.441 2.286 L 11.441 3.429 L 10.288 3.429 L 10.288 5.715 L 13.717 5.715 L 13.717 3.429 L 12.584 3.429 L 12.584 2.286 L 11.441 2.286 Z M 11.441 20.572 L 11.441 21.715 L 12.584 21.715 L 12.584 20.572 L 13.717 20.572 L 13.717 18.286 L 10.288 18.286 L 10.288 20.572 L 11.441 20.572 Z" style="fill:white;"/>
</svg>