<?xml version="1.0" encoding="utf-8"?>
<svg width="100%" height="100%" viewBox="0 0 24 24" version="1.1" style="fill-rule:evenodd;clip-rule:evenodd;stroke-linejoin:round;stroke-miterlimit:2;" xmlns="http://www.w3.org/2000/svg">
  <defs/>
  <path d="M 7.999 24 L 7.999 16.001 L 0.009 16.001 L 0.009 8.001 L 7.999 8.001 L 7.999 0.001 L 15.999 0.001 L 15.999 8.001 L 24.009 8.001 L 24.009 16.001 L 15.999 16.001 L 15.999 24 L 7.999 24 Z M 20.581 13.715 L 20.581 12.572 L 21.714 12.572 L 21.714 11.429 L 20.581 11.429 L 20.581 10.286 L 18.295 10.286 L 18.295 13.715 L 20.581 13.715 Z M 2.285 11.429 L 2.285 12.572 L 3.438 12.572 L 3.438 13.715 L 5.724 13.715 L 5.724 10.286 L 3.438 10.286 L 3.438 11.429 L 2.285 11.429 Z" style="fill:white;"/>
</svg>