<?xml version="1.0" encoding="UTF-8" standalone="no"?>
<!DOCTYPE svg PUBLIC "-//W3C//DTD SVG 1.1//EN" "http://www.w3.org/Graphics/SVG/1.1/DTD/svg11.dtd">
<svg width="100%" height="100%" viewBox="0 0 52 52" version="1.1" xmlns="http://www.w3.org/2000/svg" xmlns:xlink="http://www.w3.org/1999/xlink" xml:space="preserve" xmlns:serif="http://www.serif.com/" style="fill-rule:evenodd;clip-rule:evenodd;stroke-linejoin:round;stroke-miterlimit:2;">
    <path d="M8,42L4,42L4,38L2,38L2,34L0,34L0,18L2,18L2,14L4,14L4,10L8,10L8,6L44,6L44,10L48,10L48,14L50,14L50,18L52,18L52,34L50,34L50,38L48,38L48,42L44,42L44,46L8,46L8,42ZM35,40L35,36L21,36L21,12L17,12L17,40L35,40Z" style="fill:white;"/>
</svg>
