<?xml version="1.0" encoding="UTF-8" standalone="no"?>
<!DOCTYPE svg PUBLIC "-//W3C//DTD SVG 1.1//EN" "http://www.w3.org/Graphics/SVG/1.1/DTD/svg11.dtd">
<svg width="100%" height="100%" viewBox="0 0 52 52" version="1.1" xmlns="http://www.w3.org/2000/svg" xmlns:xlink="http://www.w3.org/1999/xlink" xml:space="preserve" xmlns:serif="http://www.serif.com/" style="fill-rule:evenodd;clip-rule:evenodd;stroke-linejoin:round;stroke-miterlimit:2;">
    <path d="M18,0L34,0L34,2L38,2L38,4L42,4L42,6L44,6L44,8L46,8L46,10L48,10L48,14L50,14L50,18L52,18L52,34L50,34L50,38L48,38L48,42L46,42L46,44L44,44L44,46L42,46L42,48L38,48L38,50L34,50L34,52L18,52L18,50L14,50L14,48L10,48L10,46L8,46L8,44L6,44L6,42L4,42L4,38L2,38L2,34L0,34L0,18L2,18L2,14L4,14L4,10L6,10L6,8L8,8L8,6L10,6L10,4L14,4L14,2L18,2L18,0ZM19.538,5L19.538,6.615L16.308,6.615L16.308,8.231L13.077,8.231L13.077,9.846L11.462,9.846L11.462,11.462L9.846,11.462L9.846,13.077L8.231,13.077L8.231,16.308L6.615,16.308L6.615,19.538L5,19.538L5,32.462L6.615,32.462L6.615,35.692L8.231,35.692L8.231,38.923L9.846,38.923L9.846,40.538L11.462,40.538L11.462,42.154L13.077,42.154L13.077,43.769L16.308,43.769L16.308,45.385L19.538,45.385L19.538,47L32.462,47L32.462,45.385L35.692,45.385L35.692,43.769L38.923,43.769L38.923,42.154L40.538,42.154L40.538,40.538L42.154,40.538L42.154,38.923L43.769,38.923L43.769,35.692L45.385,35.692L45.385,32.462L47,32.462L47,19.538L45.385,19.538L45.385,16.308L43.769,16.308L43.769,13.077L42.154,13.077L42.154,11.462L40.538,11.462L40.538,9.846L38.923,9.846L38.923,8.231L35.692,8.231L35.692,6.615L32.462,6.615L32.462,5L19.538,5Z" style="fill:white;"/>
    <g transform="matrix(0.576923,0,0,0.576923,11,11)">
        <path d="M18,0L34,0L34,2L38,2L38,4L42,4L42,6L44,6L44,8L46,8L46,10L48,10L48,14L50,14L50,18L52,18L52,34L50,34L50,38L48,38L48,42L46,42L46,44L44,44L44,46L42,46L42,48L38,48L38,50L34,50L34,52L18,52L18,50L14,50L14,48L10,48L10,46L8,46L8,44L6,44L6,42L4,42L4,38L2,38L2,34L0,34L0,18L2,18L2,14L4,14L4,10L6,10L6,8L8,8L8,6L10,6L10,4L14,4L14,2L18,2L18,0Z" style="fill:white;"/>
    </g>
</svg>
