<?xml version="1.0" encoding="UTF-8" standalone="no"?>
<!DOCTYPE svg PUBLIC "-//W3C//DTD SVG 1.1//EN" "http://www.w3.org/Graphics/SVG/1.1/DTD/svg11.dtd">
<svg width="100%" height="100%" viewBox="0 0 52 52" version="1.1" xmlns="http://www.w3.org/2000/svg" xmlns:xlink="http://www.w3.org/1999/xlink" xml:space="preserve" xmlns:serif="http://www.serif.com/" style="fill-rule:evenodd;clip-rule:evenodd;stroke-linejoin:round;stroke-miterlimit:2;">
    <path d="M8,42L4,42L4,38L2,38L2,34L0,34L0,18L2,18L2,14L4,14L4,10L8,10L8,6L44,6L44,10L48,10L48,14L50,14L50,18L52,18L52,34L50,34L50,38L48,38L48,42L44,42L44,46L8,46L8,42ZM33,16L35,16L35,14L33,14L33,16ZM31,16.006L31,16L32.996,16L32.996,12L19,12L19,16.006L31,16.006ZM32.996,16L32.996,16.006L33,16.006L33,16L32.996,16ZM33,16.006L33,18L32.996,18L32.996,22L33,22L33,26L34.998,26L34.998,24L37,24L37,16.006L33,16.006ZM32.996,18L32.996,16.006L31,16.006L31,18L32.996,18ZM32.996,22L31,22L31,24L19,24L19,28L29,28L29,30L31,30L31,32L32.996,32L32.996,30L33,30L33,32L32.996,32L32.996,40L37,40L37,30L35,30L35,28L32.996,28L32.996,22ZM18.992,12L15,12L15,40L18.992,40L18.992,12Z" style="fill:white;"/>
</svg>
